<?xml version="1.0" standalone="no"?><!DOCTYPE svg PUBLIC "-//W3C//DTD SVG 1.1//EN" "http://www.w3.org/Graphics/SVG/1.1/DTD/svg11.dtd"><svg t="1613067442903" class="icon" viewBox="0 0 1024 1024" version="1.1" xmlns="http://www.w3.org/2000/svg" p-id="4878" xmlns:xlink="http://www.w3.org/1999/xlink" width="200" height="200"><defs><style type="text/css"></style></defs><path d="M725.333333 128c-21.76 0-45.013333 24.32-61.717333 64H618.026667a258.56 258.56 0 0 1 19.541333-42.816A192.725333 192.725333 0 0 0 582.229333 192h-53.610666c41.877333-64.213333 114.346667-106.666667 196.714666-106.666667 129.6 0 234.666667 105.066667 234.666667 234.666667s-105.066667 234.666667-234.666667 234.666667v-42.666667c37.504 0 79.36-72.213333 84.757334-170.666667H725.333333v-42.666666h84.757334C804.693333 200.213333 762.837333 128 725.333333 128z m190.826667 170.666667a192.106667 192.106667 0 0 0-103.04-149.482667c12.373333 21.397333 22.421333 47.274667 29.376 76.224 5.482667 22.741333 9.045333 47.402667 10.325333 73.258667h63.36z m0 42.666666h-63.36a397.781333 397.781333 0 0 1-10.304 73.258667c-6.954667 28.949333-17.002667 54.826667-29.397333 76.224A192.106667 192.106667 0 0 0 916.16 341.333333zM938.666667 896v42.666667H85.333333v-42.666667h42.666667V277.397333A42.666667 42.666667 0 0 1 170.602667 234.666667h469.461333c23.530667 0 42.602667 19.242667 42.602667 42.730666V896h128V640h-85.333334v-42.666667h106.666667a21.333333 21.333333 0 0 1 21.333333 21.333334v277.333333h85.333334z m-298.666667 0V277.397333L170.602667 277.333333 170.666667 896h469.333333zM277.333333 640h256v42.666667H277.333333v-42.666667z m0-128h256v42.666667H277.333333v-42.666667z m0-128h256v42.666667H277.333333v-42.666667z m0 384h256v42.666667H277.333333v-42.666667z"  p-id="4879"></path></svg>
