<?xml version="1.0" standalone="no"?><!DOCTYPE svg PUBLIC "-//W3C//DTD SVG 1.1//EN" "http://www.w3.org/Graphics/SVG/1.1/DTD/svg11.dtd"><svg t="1613067335539" class="icon" viewBox="0 0 1024 1024" version="1.1" xmlns="http://www.w3.org/2000/svg" p-id="3262" xmlns:xlink="http://www.w3.org/1999/xlink" width="200" height="200"><defs><style type="text/css"></style></defs><path d="M497.871211 464.462311c0-37.006845-28.517497-65.99711-64.979944-65.99711s-64.979944 28.989241-64.979944 65.99711l0 107.173928 129.959887 0L497.871211 464.462311zM457.96227 531.727297l-50.142004 0 0-67.264986c0-14.56881 11.04659-25.981744 25.071002-25.981744s25.071002 11.412934 25.071002 25.981744L457.96227 531.727297z" p-id="3263"></path><path d="M675.92649 464.462311c0-37.006845-28.516474-65.99711-64.979944-65.99711s-64.979944 28.989241-64.979944 65.99711l0 107.173928 129.959887 0L675.92649 464.462311zM636.017548 531.727297l-50.142004 0 0-67.264986c0-14.56881 11.04659-25.981744 25.071002-25.981744s25.071002 11.412934 25.071002 25.981744L636.017548 531.727297z" p-id="3264"></path><path d="M497.871211 676.728762c0-37.007869-28.517497-65.99711-64.979944-65.99711s-64.979944 28.988218-64.979944 65.99711l0 207.015867 129.959887 0L497.871211 676.728762zM457.96227 843.835687l-50.142004 0L407.820266 676.728762c0-14.569834 11.04659-25.980721 25.071002-25.980721s25.071002 11.410887 25.071002 25.980721L457.96227 843.835687z" p-id="3265"></path><path d="M675.92649 676.728762c0-37.007869-28.516474-65.99711-64.979944-65.99711s-64.979944 28.988218-64.979944 65.99711l0 207.015867 129.959887 0L675.92649 676.728762zM636.017548 843.835687l-50.142004 0L585.875544 676.728762c0-14.569834 11.04659-25.980721 25.071002-25.980721s25.071002 11.410887 25.071002 25.980721L636.017548 843.835687z" p-id="3266"></path><path d="M935.87901 918.53704l-62.463634 0 0-353.214601c0-33.096792-26.926256-60.023048-60.023048-60.023048L754.395656 505.299391l0-116.298749c0-29.632901-21.590737-54.302767-49.862641-59.145052l0-48.91813c0-33.096792-26.926256-60.023048-60.023048-60.023048l-10.027377 0 0-26.843368c0-33.096792-26.926256-60.023048-60.023048-60.023048l-34.632775 0L539.826765 83.778078c0-11.04966-8.904811-20.007683-19.954471-20.007683s-19.954471 8.956999-19.954471 20.007683l0 50.269917-33.911344 0c-33.096792 0-60.023048 26.926256-60.023048 60.023048l0 26.843368-10.027377 0c-33.096792 0-60.023048 26.926256-60.023048 60.023048l0 48.91813c-28.272927 4.842285-49.863664 29.513174-49.863664 59.145052l0 116.298749-57.239656 0c-33.096792 0-60.023048 26.926256-60.023048 60.023048l0 353.214601-71.248717 0c-11.04966 0-20.007683 8.905834-20.007683 19.954471s8.956999 19.954471 20.007683 19.954471L935.87901 958.445982c11.048637 0 20.007683-8.905834 20.007683-19.954471S946.927647 918.53704 935.87901 918.53704zM813.392328 545.314757c11.031241 0 20.007683 8.975419 20.007683 20.007683l0 353.214601L754.395656 918.53704 754.395656 545.314757 813.392328 545.314757zM445.99982 194.071044c0-11.032264 8.975419-20.007683 20.007683-20.007683l108.452038 0c11.031241 0 20.007683 8.975419 20.007683 20.007683l0 26.843368L445.99982 220.914412 445.99982 194.071044zM375.949394 280.93746c0-11.032264 8.975419-20.007683 20.007683-20.007683l30.03506 0 188.482769 0 30.03506 0c11.031241 0 20.007683 8.975419 20.007683 20.007683l0 48.041156L375.949394 328.978616 375.949394 280.93746zM326.08573 389.001665c0-11.032264 8.975419-20.007683 20.007683-20.007683l348.279195 0c11.031241 0 20.007683 8.975419 20.007683 20.007683l0 529.536398L326.08573 918.538063 326.08573 389.001665zM208.823026 565.322439c0-11.032264 8.975419-20.007683 20.007683-20.007683l57.239656 0 0 373.222283-77.247338 0L208.823026 565.322439z" p-id="3267"></path></svg>
