<?xml version="1.0" standalone="no"?><!DOCTYPE svg PUBLIC "-//W3C//DTD SVG 1.1//EN" "http://www.w3.org/Graphics/SVG/1.1/DTD/svg11.dtd"><svg t="1613067590909" class="icon" viewBox="0 0 1024 1024" version="1.1" xmlns="http://www.w3.org/2000/svg" p-id="5008" xmlns:xlink="http://www.w3.org/1999/xlink" width="200" height="200"><defs><style type="text/css"></style></defs><path d="M853.333333 896h-42.666666v-192h-85.333334v-42.666667h128c-20.693333-12.458667-30.72-33.28-34.304-56.533333L802.112 490.666667H725.333333v-42.666667h70.229334l-3.946667-21.333333h43.178667l26.410666 171.669333C867.050667 636.437333 899.84 664.576 938.666667 661.333333v42.666667h-85.333334v192z m-170.666666 0h256v42.666667H85.333333v-42.666667h42.666667V405.333333H42.666667v-42.666666c38.570667 3.242667 71.36-24.896 77.226666-62.997334L146.304 128H189.44l-3.925333 21.333333h439.36l-3.946667-21.333333h43.178667l26.410666 171.669333C696.384 337.770667 729.173333 365.909333 768 362.666667v42.666666h-85.333333v490.666667z m-42.666667-490.666667H170.666667v490.666667h469.333333V405.333333z m-405.333333 64h149.333333v149.333334h-149.333333v-149.333334z m0 192h149.333333v149.333334h-149.333333v-149.333334z m192-192h149.333333v149.333334h-149.333333v-149.333334z m0 192h149.333333v149.333334h-149.333333v-149.333334z m-149.333334-149.333333v64h64v-64h-64z m0 256h64v-64h-64v64z m192-256v64h64v-64h-64z m0 256h64v-64h-64v64z m179.029334-461.866667L631.445333 192H178.986667l-16.896 114.133333a120.426667 120.426667 0 0 1-28.16 60.8h542.592a120.426667 120.426667 0 0 1-28.16-60.8z"  p-id="5009"></path></svg>
