<?xml version="1.0" standalone="no"?><!DOCTYPE svg PUBLIC "-//W3C//DTD SVG 1.1//EN" "http://www.w3.org/Graphics/SVG/1.1/DTD/svg11.dtd"><svg t="1613067309523" class="icon" viewBox="0 0 1024 1024" version="1.1" xmlns="http://www.w3.org/2000/svg" p-id="2731" xmlns:xlink="http://www.w3.org/1999/xlink" width="200" height="200"><defs><style type="text/css"></style></defs><path d="M953.23019 398.269749c-0.629333-0.672312-398.536832-322.714959-398.536832-322.714959-0.480954-0.388856-0.979304-0.7552-1.493004-1.096984-30.241768-20.150946-62.685691-19.065218-91.351568 3.051499-0.11154 0.085958-0.223081 0.173962-0.334621 0.26299L67.487044 395.337977c-0.726547 0.586354-1.412163 1.221828-2.050706 1.904373-25.678846 27.429723-24.255427 70.635757 3.177366 96.317673l1.475608 1.381463c25.317619 23.700795 64.076364 24.317848 90.086761 2.701528l0 429.144944-56.923454 0c-11.050684 0-20.008706 8.959046-20.008706 20.008706 0 11.04966 8.958022 20.008706 20.008706 20.008706l805.094338 0c11.04966 0 20.008706-8.959046 20.008706-20.008706 0-11.04966-8.959046-20.008706-20.008706-20.008706L858.752422 926.787958 858.752422 498.879168c11.540847 9.519818 25.810852 14.94948 41.012066 15.4509 0.76748 0.025583 1.533936 0.038886 2.298346 0.038886 17.349133 0 33.790594-6.485715 46.509267-18.392906l1.484817-1.391696c13.287631-12.43931 20.934798-29.308513 21.534456-47.499827C972.19103 428.894234 965.670523 411.55738 953.23019 398.269749zM818.733986 822.346257 703.555757 822.346257 703.555757 577.678862c0-40.414455-32.384571-73.29226-72.65474-73.29226s-72.65474 32.877805-72.65474 73.29226l0 244.667396L200.193485 822.346257 200.193485 466.059692l308.683385-237.884922 309.857117 239.07912L818.733986 822.346257zM598.155219 925.700183 598.155219 577.678862c0-18.34788 14.540158-33.274848 32.745798-33.274848s32.745798 14.926968 32.745798 33.274848l0 348.021322L598.155219 925.700183zM200.193485 862.255199l358.052792 0 0 64.531735L200.193485 926.786934 200.193485 862.255199zM703.555757 926.787958l0-64.531735 115.178229 0 0 64.531735L703.555757 926.787958zM931.59545 445.76753c-0.248663 7.507998-3.403516 14.471596-8.881274 19.597337l-1.486864 1.391696c-5.482875 5.134951-12.617365 7.863085-20.145829 7.577582-7.509021-0.246617-14.471596-3.403516-19.606547-8.887414-0.734734-0.784876-1.531889-1.509377-2.384303-2.167363L521.107425 187.067536c-3.598968-2.778276-7.912204-4.167926-12.222369-4.167926-4.307096 0-8.615215 1.38658-12.214183 4.15974L139.585105 462.244806c-0.854461 0.657986-1.654686 1.385557-2.39249 2.173502-10.602476 11.320836-28.433586 11.906168-39.756469 1.306762l-1.475608-1.38044c-11.023054-10.321066-11.870352-27.499307-2.124384-38.84675L486.447021 109.074208c14.536065-11.139711 28.490891-11.713786 43.843554-1.786693l394.529565 319.227532C929.430134 431.871031 931.829787 438.660668 931.59545 445.76753z" p-id="2732"></path><path d="M366.376365 506.575454c-40.270169 0-73.166393 32.877805-73.166393 73.290213l0 142.197606 146.332786 0L439.542758 579.865667C439.542758 539.453259 406.646534 506.575454 366.376365 506.575454zM399.633816 682.153308l-65.491597 0 0-102.288664c0-18.345834 14.542204-33.272801 32.745798-33.272801s32.745798 14.926968 32.745798 33.272801L399.633816 682.153308z" p-id="2733"></path></svg>