<?xml version="1.0" standalone="no"?><!DOCTYPE svg PUBLIC "-//W3C//DTD SVG 1.1//EN" "http://www.w3.org/Graphics/SVG/1.1/DTD/svg11.dtd"><svg t="1613067333205" class="icon" viewBox="0 0 1024 1024" version="1.1" xmlns="http://www.w3.org/2000/svg" p-id="3127" xmlns:xlink="http://www.w3.org/1999/xlink" width="200" height="200"><defs><style type="text/css"></style></defs><path d="M935.939385 923.653571l-35.7052 0L900.234185 348.528881c0-6.798846-3.452635-13.132088-9.165754-16.815991L524.903891 95.607498c-6.571672-4.237511-15.008832-4.257977-21.603017-0.053212L133.13623 331.658655c-5.761214 3.675716-9.249665 10.036587-9.249665 16.870226l0 575.124689-26.322505 0c-11.050684 0-20.008706 8.904811-20.008706 19.954471s8.958022 19.954471 20.008706 19.954471l838.374302 0c11.04966 0 20.008706-8.904811 20.008706-19.954471S946.989045 923.653571 935.939385 923.653571zM163.905 359.498724l350.09761-223.304855L860.21575 359.435279l0 564.219315L587.922157 923.654594 587.922157 488.530472c0-37.901215-30.537504-68.737524-68.049862-68.737524s-68.049862 30.836309-68.049862 68.737524l0 435.123099-287.917432 0L163.905 359.498724zM548.013215 923.653571l-56.281841 0L491.731374 488.530472c0-16.104793 12.43317-28.720112 28.14092-28.720112s28.14092 12.615319 28.14092 28.720112L548.013215 923.653571z" p-id="3128"></path><path d="M315.211055 417.792385c-37.512359 0-68.049862 30.836309-68.049862 68.737524l0 72.826656 136.099724 0 0-72.826656C383.260917 448.628694 352.723414 417.792385 315.211055 417.792385zM343.351975 519.447623l-55.258535 0 0-32.917714c0-16.104793 11.921517-28.720112 27.629267-28.720112s27.629267 12.615319 27.629267 28.720112L343.351975 519.447623z" p-id="3129"></path><path d="M799.74654 486.529909c0-37.901215-30.537504-68.737524-68.049862-68.737524s-68.049862 30.836309-68.049862 68.737524l0 72.826656 136.099724 0L799.74654 486.529909zM759.837598 519.447623l-56.281841 0 0-32.917714c0-16.104793 12.43317-28.720112 28.14092-28.720112s28.14092 12.615319 28.14092 28.720112L759.837598 519.447623z" p-id="3130"></path><path d="M315.211055 603.8755c-37.512359 0-68.049862 30.837332-68.049862 68.738547l0 193.735399 136.099724 0L383.260917 672.614048C383.260917 634.711809 352.723414 603.8755 315.211055 603.8755zM343.351975 826.439482l-55.258535 0L288.093441 672.614048c0-16.104793 11.921517-28.722158 27.629267-28.722158s27.629267 12.617365 27.629267 28.722158L343.351975 826.439482z" p-id="3131"></path><path d="M799.74654 672.614048c0-37.901215-30.537504-68.738547-68.049862-68.738547s-68.049862 30.837332-68.049862 68.738547l0 193.735399 136.099724 0L799.74654 672.614048zM759.837598 826.439482l-56.281841 0L703.555757 672.614048c0-16.104793 12.43317-28.722158 28.14092-28.722158s28.14092 12.617365 28.14092 28.722158L759.837598 826.439482z" p-id="3132"></path><path d="M520.063653 372.740306c44.242643 0 80.235392-35.993772 80.235392-80.236416 0-44.242643-35.992749-80.236416-80.235392-80.236416s-80.235392 35.993772-80.235392 80.236416C439.829284 336.746534 475.822033 372.740306 520.063653 372.740306zM520.063653 252.28591c22.176069 0 40.216957 18.041912 40.216957 40.21798 0 22.176069-18.040888 40.21798-40.216957 40.21798s-40.216957-18.041912-40.216957-40.21798C479.846696 270.327822 497.888608 252.28591 520.063653 252.28591z" p-id="3133"></path></svg>